<svg xmlns="http://www.w3.org/2000/svg" width="100" height="40" viewBox="0 0 100 40">
    <defs>
        <style>
            .cls-1{fill:none}.cls-2{fill:#1a1818}
        </style>
    </defs>
    <g id="그룹_2" data-name="그룹 2" transform="translate(-137.053 -11.915)">
        <path id="사각형_25" d="M0 0h100v40H0z" class="cls-1" data-name="사각형 25" transform="translate(137.053 11.915)"/>
        <g id="그룹_1" data-name="그룹 1">
            <path id="패스_8" d="M213.964 37.131c0 .835.176 1.625.966 1.625 1.889 0 3.689-3.293 4.743-5.358l.878-1.712.088-.176.659.351-.088.176-.922 1.713c-2.942 5.445-4.3 5.753-5.841 5.753a3.806 3.806 0 0 1-3.908-3.118 6.317 6.317 0 0 1-5.006 3.118c-3.953 0-5.929-2.328-5.929-5.446a8.342 8.342 0 0 1 8.52-8.431 5.577 5.577 0 0 1 4 1.888c.4 0 1.669-1.625 2.591-1.625h1.229l-1.544 7.993a20.014 20.014 0 0 0-.436 3.249zm-5.84-10.539c-2.679 0-4.919 3.074-4.919 7.773 0 1.976.483 4.171 2.328 4.171 2.02 0 4.215-1.8 5.094-4.523l1.141-5.8a4.587 4.587 0 0 0-3.644-1.621z" class="cls-2" data-name="패스 8"/>
            <path id="패스_9" d="M223.142 39.5c-2.02 0-2.635-2.021-2.635-3.953a11.884 11.884 0 0 1 .176-1.8l.4-1.8-.527-.263.044-.088a20.651 20.651 0 0 0 1.932-5.006H221.3l.088-.7h4.128c.307 0 .614.132.614.4v.044a68.107 68.107 0 0 0-1.756 7.554 23.191 23.191 0 0 0-.571 3.6c0 .659.22.791.571.791.483 0 1.669-.483 2.9-2.2l.571.483c-1.321 1.838-2.858 2.938-4.703 2.938zm4.787-20.025a2.675 2.675 0 0 1-2.415 2.02 1.819 1.819 0 0 1-1.845-1.8 1.212 1.212 0 0 1 .044-.4 2.675 2.675 0 0 1 2.415-2.02 1.78 1.78 0 0 1 1.8 1.8 1.2 1.2 0 0 1 .001.403z" class="cls-2" data-name="패스 9"/>
        </g>
        <path id="패스_10" d="M166.5 40.638l-6.485-6.528-6.484 6.528-7.448-7.5a1.36 1.36 0 0 1 1.93-1.917l5.518 5.557 6.484-6.528 6.485 6.528 6.481-6.528 6.488 6.529 6.491-6.528 7.457 7.5a1.36 1.36 0 0 1-1.93 1.918l-5.527-5.559-6.491 6.529-6.488-6.527z" class="cls-2" data-name="패스 10"/>
    </g>
</svg>
